<svg width="75" height="74" viewBox="0 0 75 74" fill="none" xmlns="http://www.w3.org/2000/svg">
<path d="M44.2862 36.4281L39.7732 19.3176L49.6433 36.4281L50.3576 30.3567L55.7147 41.4281L65.7147 51.0709L66.7862 52.1424L70.3576 43.5709C73.5719 12.1424 48.6909 4.40428 36.0719 4.28523L24.6433 5.7138L34.6595 0.567627C92.6141 9.09035 76.429 59.6424 55.7147 68.2138L39.7732 56.2495L57.1433 60.3567L44.2862 36.4281Z" fill="#CCE0E1"/>
<path d="M75 36.7532C75 16.4575 58.2081 0 37.5 0C16.7919 0 0 16.4511 0 36.7532C0 43.4474 1.82621 49.7215 5.01714 55.1298C5.0567 55.2009 5.10285 55.2655 5.14241 55.3366C5.27426 55.5563 5.40612 55.776 5.54457 55.9957C5.61709 56.1055 5.68961 56.2218 5.76213 56.3317C5.89399 56.532 6.02584 56.7388 6.1577 56.9391C6.22363 57.036 6.28956 57.1394 6.35548 57.2363C6.54668 57.5206 6.74446 57.7985 6.94225 58.0699C7.00158 58.1539 7.06751 58.2379 7.12685 58.3218C7.27848 58.5222 7.43012 58.7289 7.58175 58.9292C7.66086 59.0326 7.74657 59.1425 7.82569 59.2458C7.97732 59.4332 8.12896 59.6271 8.28059 59.8145C8.35311 59.9049 8.42563 59.9954 8.50475 60.0858C8.72231 60.3443 8.94647 60.6028 9.17062 60.8612C9.24314 60.9452 9.31566 61.0228 9.39478 61.1068C9.5596 61.2877 9.73101 61.4751 9.89583 61.656C9.98813 61.7529 10.0804 61.8498 10.1727 61.9468C10.3441 62.1212 10.509 62.2957 10.687 62.4702C10.7661 62.5542 10.8518 62.6317 10.9309 62.7157C11.1748 62.9548 11.4188 63.1874 11.6693 63.42C11.755 63.4975 11.8407 63.5751 11.9264 63.6526C12.1044 63.8142 12.289 63.9822 12.467 64.1372C12.5725 64.2277 12.6714 64.3182 12.7769 64.4022C12.9615 64.5637 13.1527 64.7188 13.3439 64.8803C13.4296 64.9514 13.5153 65.0225 13.601 65.0935C13.8647 65.3068 14.135 65.52 14.4053 65.7268C14.4976 65.7979 14.5965 65.8689 14.6888 65.94C14.88 66.0822 15.0778 66.2308 15.269 66.3729C15.3811 66.4505 15.4931 66.5345 15.5986 66.612C15.803 66.7542 16.014 66.9028 16.2184 67.0385C16.3041 67.0966 16.3964 67.1612 16.4821 67.2194C16.7656 67.4068 17.0556 67.5942 17.3457 67.7751C17.4512 67.8397 17.5501 67.9043 17.6556 67.9625C17.86 68.0917 18.0709 68.2145 18.2819 68.3372C18.4006 68.4083 18.5127 68.4729 18.6313 68.5375C18.8621 68.6668 19.0862 68.796 19.317 68.9188C19.4027 68.964 19.4884 69.0157 19.5807 69.0609C19.884 69.2225 20.1938 69.384 20.5037 69.5391C20.6092 69.5908 20.7213 69.6425 20.8267 69.6942C21.0509 69.804 21.2751 69.9074 21.4992 70.0108C21.6179 70.0689 21.7366 70.1206 21.8552 70.1723C22.1058 70.2886 22.3629 70.3985 22.62 70.5018C22.6991 70.5342 22.7782 70.5729 22.8573 70.6052C23.1804 70.7409 23.51 70.8702 23.8397 70.9994C23.9517 71.0446 24.0572 71.0834 24.1693 71.1222C24.4066 71.2126 24.6506 71.2966 24.8945 71.3806C25.0132 71.4194 25.1319 71.4646 25.2571 71.5034C25.5406 71.6003 25.8241 71.6908 26.1076 71.7812C26.1735 71.8006 26.2395 71.8265 26.3054 71.8458C26.6482 71.9492 26.9976 72.0526 27.347 72.1495C27.4591 72.1818 27.5712 72.2077 27.6833 72.24C27.9404 72.3111 28.1975 72.3757 28.4546 72.4338C28.5733 72.4597 28.692 72.492 28.8107 72.5179C29.1271 72.5889 29.4436 72.66 29.76 72.7246C29.8062 72.7375 29.8589 72.744 29.9051 72.7569C30.2677 72.828 30.6303 72.8991 30.9995 72.9572C31.1116 72.9766 31.2236 72.996 31.3357 73.0089C31.606 73.0542 31.8829 73.0929 32.1598 73.1317C32.2719 73.1446 32.3906 73.164 32.5026 73.1769C32.8521 73.2222 33.2081 73.2674 33.5641 73.2997C33.5905 73.2997 33.6102 73.2997 33.6366 73.3062C34.0124 73.3449 34.3948 73.3772 34.7772 73.4031C34.8892 73.4095 35.0013 73.416 35.1134 73.4225C35.3969 73.4418 35.687 73.4548 35.9705 73.4677C36.0825 73.4677 36.2012 73.4742 36.3133 73.4806C36.7023 73.4935 37.0912 73.5 37.4802 73.5C37.8692 73.5 38.2582 73.4935 38.6471 73.4806C38.7592 73.4806 38.8779 73.4742 38.99 73.4677C39.2801 73.4548 39.5636 73.4418 39.847 73.4225C39.9591 73.416 40.0712 73.4095 40.1833 73.4031C40.5657 73.3772 40.948 73.3449 41.3238 73.3062C41.3502 73.3062 41.37 73.3062 41.3964 73.2997C41.7524 73.2609 42.1084 73.2222 42.4578 73.1769C42.5699 73.164 42.6886 73.1446 42.8006 73.1317C43.0775 73.0929 43.3478 73.0542 43.6247 73.0089C43.7368 72.9895 43.8489 72.9766 43.9544 72.9572C44.3236 72.8926 44.6862 72.828 45.0488 72.7569C45.0949 72.7505 45.1411 72.7375 45.1872 72.7246C45.5103 72.66 45.8267 72.5889 46.1432 72.5179C46.2619 72.492 46.3739 72.4597 46.4926 72.4338C46.7563 72.3692 47.0134 72.3046 47.2706 72.2335C47.3826 72.2077 47.4881 72.1754 47.6002 72.1495C47.9496 72.0526 48.299 71.9557 48.6485 71.8458C48.7078 71.8265 48.7737 71.8071 48.8331 71.7877C49.1231 71.6972 49.4132 71.6003 49.7033 71.5034C49.822 71.4646 49.9341 71.4258 50.0527 71.3806C50.2967 71.2966 50.5472 71.2062 50.7911 71.1157C50.8966 71.0769 51.0021 71.0382 51.1076 70.9994C51.4438 70.8702 51.7735 70.7409 52.1031 70.6052C52.1756 70.5729 52.2482 70.5406 52.3207 70.5148C52.5844 70.4049 52.8481 70.2886 53.1118 70.1723C53.2239 70.1206 53.3426 70.0689 53.4546 70.0172C53.6854 69.9074 53.9227 69.7975 54.1535 69.6877C54.2524 69.636 54.3579 69.5908 54.4567 69.5391C54.7732 69.384 55.0831 69.2225 55.3929 69.0545C55.472 69.0157 55.5446 68.9705 55.6171 68.9317C55.6237 68.9317 55.6369 68.9188 55.6435 68.9188C55.9204 68.7702 56.1973 68.6022 56.4676 68.4471C56.2566 68.5698 56.0456 68.6926 55.8347 68.8089C56.0061 68.7185 56.1709 68.6215 56.3357 68.5311C56.4478 68.4665 56.5533 68.4083 56.6588 68.3437C56.7379 68.2985 56.8104 68.2532 56.8895 68.208C57.0016 68.1434 57.1137 68.0723 57.2257 68.0077C57.2587 67.9883 57.2917 67.9689 57.318 67.9495C57.4103 67.8914 57.5026 67.8397 57.5949 67.7815C57.885 67.6006 58.1751 67.4132 58.4586 67.2258C58.2278 67.3809 57.9905 67.5231 57.7532 67.6717C58.9399 66.9222 60.087 66.1145 61.1748 65.2422C61.2408 65.1905 61.3067 65.1388 61.3726 65.0871C61.4451 65.0289 61.5111 64.9708 61.577 64.9126C61.788 64.7382 61.9923 64.5637 62.2033 64.3892C62.2956 64.3117 62.3813 64.2342 62.4736 64.1566C62.678 63.9757 62.8758 63.8012 63.0736 63.6138C63.1395 63.5492 63.212 63.4911 63.278 63.4265C63.3834 63.3295 63.4823 63.2326 63.5812 63.1357C63.5153 63.2003 63.4494 63.252 63.3834 63.3166C63.456 63.2455 63.5351 63.1809 63.6142 63.1098C63.7592 62.9742 63.9043 62.8385 64.0427 62.7028C64.1086 62.6382 64.168 62.58 64.2273 62.5154C64.4185 62.3215 64.6163 62.1277 64.8009 61.9274C64.88 61.8434 64.9591 61.7658 65.0382 61.6818C65.2294 61.4751 65.4206 61.2683 65.6118 61.0615C65.6646 61.0034 65.7173 60.9452 65.77 60.8871C65.803 60.8483 65.836 60.8095 65.8689 60.7708C65.9678 60.6545 66.0667 60.5446 66.1656 60.4283C66.2315 60.3508 66.3041 60.2668 66.37 60.1892C66.4293 60.1182 66.4887 60.0406 66.548 59.9695C66.5018 60.0277 66.4557 60.0794 66.4095 60.1375C66.4227 60.1182 66.4425 60.0988 66.4557 60.0794C66.5084 60.0148 66.5678 59.9437 66.6205 59.8791C66.6864 59.8015 66.7458 59.724 66.8117 59.64C66.871 59.5625 66.937 59.4849 66.9963 59.4138C67.0754 59.3169 67.1479 59.22 67.2271 59.1231C67.1875 59.1683 67.1545 59.22 67.115 59.2652C67.1216 59.2523 67.1348 59.2394 67.1413 59.2265C67.2073 59.1425 67.2732 59.052 67.3457 58.968C67.4248 58.8646 67.5105 58.7548 67.5897 58.6449C67.649 58.5674 67.7017 58.4963 67.7611 58.4252C67.8204 58.3477 67.8732 58.2766 67.9325 58.1991C68.1237 57.9406 68.3083 57.6822 68.4863 57.4172C68.5522 57.3203 68.6181 57.2234 68.6841 57.1265C68.6379 57.1975 68.5852 57.2686 68.539 57.3397C68.5654 57.3009 68.5918 57.2686 68.6181 57.2299C68.6709 57.1588 68.717 57.0812 68.7632 57.0102C68.8621 56.8615 68.961 56.7065 69.0599 56.5578C69.1258 56.4609 69.1917 56.364 69.2511 56.2671C69.2906 56.2089 69.3236 56.1508 69.3631 56.0926C69.3697 56.0797 69.3829 56.0603 69.3895 56.0474C69.5477 55.7954 69.706 55.5369 69.8576 55.2785C69.8708 55.2591 69.8774 55.2462 69.8906 55.2268C69.9037 55.2009 69.9235 55.1751 69.9367 55.1557C70.3323 54.4837 70.7081 53.7988 71.0575 53.1009C71.0707 53.0751 71.0839 53.0428 71.097 53.0169C71.2553 52.7068 71.4069 52.3902 71.5585 52.0735C71.5915 52.0025 71.6245 51.9249 71.6574 51.8539C71.7827 51.5825 71.908 51.3046 72.0266 51.0268C72.0728 50.9234 72.1123 50.8265 72.1519 50.7231C72.2574 50.4711 72.3629 50.2191 72.4618 49.9671C72.5079 49.8443 72.5541 49.728 72.6002 49.6052C72.6925 49.3661 72.7782 49.1335 72.8639 48.888C72.9101 48.7523 72.9562 48.6166 73.0024 48.4809C73.0815 48.2548 73.154 48.0286 73.2265 47.796C73.2727 47.6474 73.3188 47.4988 73.365 47.3502C73.4309 47.1305 73.4968 46.9108 73.5628 46.6911C73.6089 46.536 73.6551 46.3745 73.6946 46.2129C73.754 45.9997 73.8067 45.7865 73.8594 45.5732C73.899 45.4052 73.9451 45.2372 73.9847 45.0692C74.0309 44.8625 74.077 44.6492 74.1232 44.4425C74.1627 44.268 74.2023 44.0871 74.2352 43.9126C74.2748 43.7058 74.3143 43.5055 74.3539 43.2988C74.3869 43.1178 74.4198 42.9305 74.4528 42.7431C74.4858 42.5428 74.5187 42.3425 74.5451 42.1422C74.5715 41.9483 74.6044 41.7609 74.6308 41.5671C74.6572 41.3732 74.6769 41.1729 74.7033 40.9791C74.7297 40.7788 74.7495 40.5785 74.7693 40.3782C74.789 40.1908 74.8022 39.9969 74.8154 39.8031C74.8352 39.5963 74.855 39.3895 74.8681 39.1828C74.8813 39.0018 74.8879 38.8145 74.8945 38.6335C74.9275 38.0132 74.9473 37.3929 74.9473 36.7726C74.9473 36.7726 74.9473 36.7338 74.9473 36.7145C74.9473 36.7338 74.9473 36.7532 74.9473 36.7726L75 36.7532ZM39.847 2.30031C39.5504 2.30031 39.2537 2.30031 38.9504 2.31323C39.2471 2.30677 39.5438 2.30031 39.847 2.30031ZM15.5063 11.8892C15.5063 11.8892 15.5459 11.8505 15.5657 11.8311C15.5459 11.8505 15.5261 11.8698 15.5063 11.8892ZM36.8012 2.42954C36.6363 2.44246 36.4715 2.45538 36.3067 2.47477C36.4715 2.46185 36.6363 2.44892 36.8012 2.42954ZM35.9177 2.51354C35.7595 2.53292 35.6013 2.54585 35.443 2.56523C35.6013 2.54585 35.7595 2.52646 35.9177 2.51354ZM34.1772 2.74615C34.0256 2.772 33.8739 2.79138 33.7223 2.81723C33.8739 2.79138 34.0256 2.76554 34.1772 2.74615ZM32.4697 3.06277C32.3246 3.09508 32.1796 3.12092 32.0345 3.15323C32.1796 3.12092 32.3246 3.08862 32.4697 3.06277ZM31.6258 3.25015C31.4807 3.28246 31.3423 3.31477 31.1973 3.35354C31.3357 3.32123 31.4807 3.28246 31.6258 3.25015ZM30.7951 3.45692C30.6566 3.49569 30.5116 3.528 30.3732 3.56677C30.5116 3.528 30.6501 3.48923 30.7951 3.45692ZM29.971 3.68308C29.8325 3.72185 29.6941 3.76062 29.5556 3.80585C29.6941 3.76708 29.8325 3.72185 29.971 3.68308ZM29.1535 3.92862C29.015 3.97385 28.8832 4.01262 28.7447 4.05785C28.8766 4.01262 29.015 3.97385 29.1535 3.92862ZM27.5448 4.47785C27.413 4.52308 27.2811 4.57477 27.1559 4.62646C27.2877 4.57477 27.4196 4.52954 27.5448 4.47785ZM25.9757 5.09169C25.8505 5.14338 25.7252 5.19508 25.5999 5.25323C25.7252 5.20154 25.8505 5.14338 25.9757 5.09169ZM25.2044 5.42769C25.0857 5.47938 24.9604 5.53754 24.8418 5.59569C24.9604 5.53754 25.0791 5.48585 25.2044 5.42769ZM24.4396 5.78308C24.3209 5.84123 24.2023 5.89292 24.0902 5.95108C24.2089 5.89292 24.3209 5.83477 24.4396 5.78308ZM22.2178 6.94615C22.1123 7.00431 22.0069 7.06892 21.9014 7.12708C22.0069 7.06246 22.1123 7.00431 22.2178 6.94615ZM21.4992 7.36615C21.3937 7.43077 21.2948 7.48892 21.1893 7.55354C21.2948 7.48892 21.3937 7.42431 21.4992 7.36615ZM20.7938 7.80554C20.6949 7.87015 20.596 7.93477 20.4971 7.99292C20.596 7.92831 20.6949 7.86369 20.7938 7.80554ZM20.0949 8.25785C20.0026 8.32246 19.9103 8.38708 19.818 8.44523C19.9103 8.38062 20.0026 8.316 20.0949 8.25785ZM18.7368 9.20769C18.6577 9.26585 18.572 9.33046 18.4929 9.38862C18.572 9.33046 18.6511 9.26585 18.7368 9.20769ZM16.1788 11.2883C16.1392 11.3271 16.0997 11.3658 16.0535 11.3982C16.0931 11.3594 16.1326 11.3206 16.1788 11.2883ZM4.73365 35.0732C4.73365 35.1572 4.72706 35.2412 4.72046 35.3252C4.72046 35.3252 4.72046 35.3188 4.72046 35.3123C4.72046 35.2348 4.72046 35.1572 4.73365 35.0732ZM10.3507 18.0018C10.3507 18.0018 10.3441 18.0148 10.3376 18.0212C10.3376 18.0212 10.3441 18.0083 10.3507 18.0018ZM9.9288 18.6609C9.9288 18.6609 9.90902 18.6932 9.89583 18.7062C9.90902 18.6932 9.91561 18.6738 9.9288 18.6609ZM9.51345 19.3329C9.51345 19.3329 9.48708 19.3782 9.4673 19.404C9.48048 19.3782 9.49367 19.3588 9.51345 19.3329ZM9.11129 20.0243C9.11129 20.0243 9.07832 20.0825 9.05854 20.1083C9.07832 20.076 9.09151 20.0502 9.11129 20.0243ZM7.64768 22.9191C7.6279 22.9578 7.60812 23.0031 7.59494 23.0418C7.61472 23.0031 7.63449 22.9578 7.64768 22.9191ZM6.45438 25.9818C6.44119 26.0271 6.42801 26.0723 6.40823 26.1175C6.42141 26.0723 6.4346 26.0271 6.45438 25.9818ZM6.19726 26.7702C6.18407 26.8154 6.17089 26.8606 6.1577 26.8994C6.17089 26.8542 6.18407 26.8089 6.19726 26.7702ZM5.95992 27.5649C5.94673 27.6102 5.93354 27.6489 5.92695 27.6942C5.94014 27.6489 5.95332 27.6102 5.95992 27.5649ZM5.20833 30.828C5.20833 30.8603 5.19515 30.8991 5.18855 30.9314C5.18855 30.8991 5.20174 30.8603 5.20833 30.828ZM5.06988 31.6615C5.06988 31.6615 5.06329 31.7262 5.0567 31.7585C5.0567 31.7262 5.06329 31.6938 5.06988 31.6615ZM4.95121 32.5015C4.95121 32.5015 4.94462 32.5597 4.93803 32.5855C4.93803 32.5597 4.93803 32.5274 4.95121 32.5015ZM4.85232 33.348C4.85232 33.348 4.85232 33.3932 4.85232 33.4126C4.85232 33.3932 4.85232 33.3674 4.85232 33.348ZM4.7798 34.2009C4.7798 34.2009 4.7798 34.2268 4.7798 34.2397C4.7798 34.2268 4.7798 34.2138 4.7798 34.2009ZM4.69409 35.8098C4.69409 35.8938 4.69409 35.9778 4.69409 36.0554C4.69409 35.9714 4.69409 35.8938 4.69409 35.8098ZM18.7434 41.3474L8.43223 51.6923C6.03903 47.2274 4.68091 42.1422 4.68091 36.7532C4.68091 36.7532 4.68091 36.7468 4.68091 36.7403C4.68091 36.7403 4.68091 36.7468 4.68091 36.7532V36.7403C4.68091 36.5852 4.68091 36.4237 4.6875 36.2686C4.9644 18.732 19.5477 4.59415 37.5 4.59415C53.8041 4.59415 67.326 16.2508 69.8774 31.5258C70.0158 32.3658 70.1213 33.2123 70.1938 34.0717C70.1938 34.0846 70.1938 34.0911 70.1938 34.104C70.1938 34.1105 70.1938 34.1234 70.1938 34.1298C70.2268 34.5305 70.2532 34.9311 70.2663 35.3317C70.2663 35.3898 70.2663 35.4415 70.2663 35.4997C70.2663 35.5126 70.2663 35.532 70.2663 35.5449C70.2795 35.9455 70.2927 36.3462 70.2927 36.7468C70.2927 42.1422 68.9346 47.2274 66.5414 51.6923L56.2302 41.3474L49.9802 27.5649H44.9829L37.4802 13.7825L18.7302 41.3474H18.7434ZM64.7877 61.9468C65.1635 61.5526 65.5327 61.1585 65.8887 60.7514C65.5327 61.1585 65.1635 61.5591 64.7877 61.9468ZM69.284 54.7357L69.2247 54.8326C69.2247 54.8326 69.1983 54.8714 69.1851 54.8908C69.0335 55.1428 68.8819 55.3883 68.7302 55.6338L68.6775 55.7178C68.6577 55.7502 68.6379 55.7889 68.6115 55.8212C68.4467 56.0732 68.2687 56.3511 68.0512 56.6612C67.9852 56.7582 67.9193 56.8486 67.8534 56.9455C67.6556 57.2298 67.4776 57.4818 67.3062 57.7145C67.2666 57.7662 67.2336 57.8178 67.1941 57.8631L67.1413 57.9342C66.9699 58.1603 66.7985 58.3865 66.6205 58.6126C66.548 58.7095 66.4755 58.8 66.3964 58.8969C66.1722 59.1748 65.9678 59.4268 65.7766 59.6529C65.7371 59.7046 65.6909 59.7498 65.6514 59.7951L65.5723 59.8855L65.5129 59.9502L65.2756 60.2215C62.5396 63.3295 59.3223 65.9335 55.716 67.9625L40.9546 56.7646L56.0324 60.4606L57.7663 60.8871L56.9225 59.3428L44.462 36.4495L40.0119 20.0889L49.2682 37.1021L50.7648 39.8483V31.2157L55.4984 41.6511L55.5577 41.7803L55.6566 41.8772L65.9678 52.2222L66.7326 52.9846L67.2402 52.0348C69.7521 47.3502 71.0839 42.0582 71.0839 36.7274C71.0839 36.3526 71.0773 35.952 71.0575 35.4932V35.448L71.0509 35.2735C71.0311 34.8342 71.0047 34.4271 70.9718 34.0394V34.0071V33.9877C70.8993 33.1154 70.7872 32.2366 70.6421 31.3772C69.3697 23.7526 65.3613 16.7742 59.3486 11.7212C53.27 6.61015 45.5037 3.79292 37.4868 3.79292C34.1179 3.79292 30.8149 4.27754 27.6767 5.208C31.5071 3.79292 35.6145 3.04985 39.8273 3.04985C48.0947 3.04985 56.0852 5.97046 62.322 11.2689C68.4995 16.5157 72.5738 23.7397 73.8001 31.6163L73.9056 32.2754H73.9122C74.0045 33.0443 74.077 33.8455 74.1297 34.6662C74.1429 34.8406 74.1495 35.0086 74.1561 35.1831C74.1627 35.3317 74.1693 35.4738 74.1759 35.6225C74.1891 36.0489 74.1957 36.3978 74.1957 36.7274C74.1957 43.0468 72.4947 49.2692 69.284 54.7163V54.7357ZM69.9697 55.1234C70.1609 54.7938 70.3521 54.4643 70.5367 54.1283C70.3521 54.4643 70.1675 54.7938 69.9697 55.1234ZM70.7147 53.7858C70.8333 53.5662 70.952 53.34 71.0641 53.1138C70.952 53.34 70.8333 53.5597 70.7147 53.7858ZM71.2685 52.7003C71.3674 52.4935 71.4728 52.2932 71.5651 52.0865C71.4662 52.2932 71.3674 52.4935 71.2685 52.7003ZM71.7761 51.6342C71.8618 51.4403 71.9541 51.24 72.0398 51.0462C71.9541 51.2465 71.8618 51.4403 71.7761 51.6342ZM72.6727 49.476C72.7453 49.2822 72.8178 49.0948 72.8837 48.9009C72.8178 49.0948 72.7453 49.2886 72.6727 49.476ZM73.0683 48.3775C73.1342 48.1902 73.2002 47.9963 73.2595 47.8025C73.2002 47.9963 73.1342 48.1837 73.0683 48.3775ZM73.4243 47.2662C73.4837 47.0788 73.5364 46.8849 73.5957 46.6975C73.543 46.8914 73.4837 47.0788 73.4243 47.2662ZM73.7474 46.1418C73.8001 45.9545 73.8463 45.7606 73.8924 45.5732C73.8463 45.7671 73.7935 45.9545 73.7474 46.1418ZM74.0309 45.0046C74.077 44.8172 74.1166 44.6234 74.1561 44.436C74.1166 44.6298 74.0704 44.8172 74.0309 45.0046ZM74.2814 43.8545C74.3209 43.6671 74.3539 43.4732 74.3869 43.2858C74.3539 43.4797 74.3143 43.6671 74.2814 43.8545ZM74.4924 42.6914C74.5253 42.504 74.5517 42.3102 74.5781 42.1228C74.5517 42.3102 74.5187 42.504 74.4924 42.6914ZM74.6704 41.5219C74.6967 41.3345 74.7165 41.1471 74.7363 40.9532C74.7165 41.1406 74.6901 41.3345 74.6704 41.5219Z" fill="white"/>
</svg>
